HIERARCHY
ROOT SpineBase
{
  OFFSET 0.000000 0.000000 0.000000
  CHANNELS 6 Xposition Yposition Zposition Zrotation Xrotation Yrotation
  JOINT SpineMid
  {
    OFFSET 0.000000 33.808760 0.000000
    CHANNELS 3 Zrotation Xrotation Yrotation
    JOINT SpineShoulder
    {
      OFFSET -0.277643 25.049041 -0.944817
      CHANNELS 3 Zrotation Xrotation Yrotation
      JOINT Neck
      {
        OFFSET -0.212559 8.266477 -0.672014
        CHANNELS 3 Zrotation Xrotation Yrotation
        JOINT Head
        {
          OFFSET 1.359383 12.737028 5.895909
          CHANNELS 3 Zrotation Xrotation Yrotation
          End Site
          {
            OFFSET 0 0 0
          }
        }
      }
      JOINT ShoulderLeft
      {
        OFFSET -17.055336 -8.734547 -3.037853
        CHANNELS 3 Zrotation Xrotation Yrotation
        JOINT ElbowLeft
        {
          OFFSET -4.288265 -26.005099 1.631603
          CHANNELS 3 Zrotation Xrotation Yrotation
          JOINT WristLeft
          {
            OFFSET 0.788783 -21.011804 7.503005
            CHANNELS 3 Zrotation Xrotation Yrotation
            JOINT HandLeft
            {
              OFFSET 1.140273 -4.479109 1.168961
              CHANNELS 3 Zrotation Xrotation Yrotation
              JOINT HandTipLeft
              {
                OFFSET 1.385068 -3.414154 -0.755911
                CHANNELS 3 Zrotation Xrotation Yrotation
                End Site
                {
                  OFFSET 0 0 0
                }
              }
              JOINT ThumbLeft
              {
                OFFSET 1.947568 0.598251 0.070039
                CHANNELS 3 Zrotation Xrotation Yrotation
                End Site
                {
                  OFFSET 0 0 0
                }
              }
            }
          }
        }
      }
      JOINT ShoulderRight
      {
        OFFSET 13.556188 -6.963144 -8.424299
        CHANNELS 3 Zrotation Xrotation Yrotation
        JOINT ElbowRight
        {
          OFFSET 7.502861 -24.932968 1.208602
          CHANNELS 3 Zrotation Xrotation Yrotation
          JOINT WristRight
          {
            OFFSET 0.706943 -21.355235 5.623992
            CHANNELS 3 Zrotation Xrotation Yrotation
            JOINT HandRight
            {
              OFFSET -0.803740 -2.729811 -0.664844
              CHANNELS 3 Zrotation Xrotation Yrotation
              JOINT HandTipRight
              {
                OFFSET -3.240883 -2.471500 -4.829624
                CHANNELS 3 Zrotation Xrotation Yrotation
                End Site
                {
                  OFFSET 0 0 0
                }
              }
              JOINT ThumbRight
              {
                OFFSET -6.075999 -1.999071 -9.143609
                CHANNELS 3 Zrotation Xrotation Yrotation
                End Site
                {
                  OFFSET 0 0 0
                }
              }
            }
          }
        }
      }
    }
  }
  JOINT HipLeft
  {
    OFFSET -7.882281 0.911338 -2.480192
    CHANNELS 3 Zrotation Xrotation Yrotation
    JOINT KneeLeft
    {
      OFFSET -0.426122 -34.769992 -3.241447
      CHANNELS 3 Zrotation Xrotation Yrotation
      JOINT AnkleLeft
      {
        OFFSET -0.669378 -36.531578 1.499332
        CHANNELS 3 Zrotation Xrotation Yrotation
        JOINT FootLeft
        {
          OFFSET -0.629195 12.575223 -5.294386
          CHANNELS 3 Zrotation Xrotation Yrotation
          End Site
          {
            OFFSET 0 0 0
          }
        }
      }
    }
  }
  JOINT HipRight
  {
    OFFSET 5.398250 1.848270 -4.507485
    CHANNELS 3 Zrotation Xrotation Yrotation
    JOINT KneeRight
    {
      OFFSET 1.973091 -28.386647 -3.564885
      CHANNELS 3 Zrotation Xrotation Yrotation
      JOINT AnkleRight
      {
        OFFSET 1.174717 -34.371275 -1.557829
        CHANNELS 3 Zrotation Xrotation Yrotation
        JOINT FootRight
        {
          OFFSET -0.350449 13.978263 -4.755632
          CHANNELS 3 Zrotation Xrotation Yrotation
          End Site
          {
            OFFSET 0 0 0
          }
        }
      }
    }
  }
}
MOTION
Frames: 5
Frame Time: 0.033333
83.501894 72.468875 234.344449 -0.000000 0.000000 8.679286 -0.000000 0.000000 -8.679286 -0.000000 0.000000 0.000000 -0.000000 0.000000 0.000000 0.000000 0.000000 0.000000 -0.000000 0.000000 0.000000 -0.000000 0.000000 0.000000 -0.000000 0.000000 0.000000 -0.000000 0.000000 0.000000 0.000000 0.000000 0.000000 0.000000 0.000000 0.000000 -0.000000 0.000000 0.000000 -0.000000 0.000000 0.000000 -0.000000 0.000000 0.000000 -0.000000 0.000000 0.000000 0.000000 0.000000 0.000000 0.000000 0.000000 0.000000 -0.000000 0.000000 -8.679286 -0.000000 0.000000 0.000000 -0.000000 0.000000 0.000000 0.000000 0.000000 0.000000 -0.000000 0.000000 -8.679286 -0.000000 0.000000 0.000000 -0.000000 0.000000 0.000000 0.000000 0.000000 0.000000
83.442565 72.454464 234.291512 -0.081614 -0.032703 8.656964 0.085607 0.020046 -8.657002 -0.000000 0.000000 0.000000 -0.000000 0.000000 0.000000 0.000000 0.000000 0.000000 -0.000000 0.000000 0.000000 -0.000000 0.000000 0.000000 -2.279440 -0.764472 -0.807466 2.306565 -0.458542 0.261459 0.000000 0.000000 0.000000 0.000000 0.000000 0.000000 -0.000000 0.000000 0.000000 0.106623 1.187311 0.066460 -6.356817 1.135356 0.753875 10.282648 -8.552451 -0.291851 0.000000 0.000000 0.000000 0.000000 0.000000 0.000000 0.085607 0.020046 -8.657002 0.148879 1.130425 -0.016079 3.674057 -18.543205 1.313113 0.000000 0.000000 0.000000 0.085607 0.020046 -8.657002 -0.000000 0.000000 0.000000 -0.000000 0.000000 0.000000 0.000000 0.000000 0.000000
83.391534 72.442193 234.243612 -0.150138 -0.062362 8.637515 0.157801 0.039106 -8.637650 -0.000000 0.000000 0.000000 -0.000000 0.000000 0.000000 0.000000 0.000000 0.000000 -0.000000 0.000000 0.000000 0.781953 -0.102886 0.275908 -5.108137 -1.314644 -1.824886 3.943777 -0.573881 0.671995 0.000000 0.000000 0.000000 0.000000 0.000000 0.000000 -0.000000 0.000000 0.000000 0.163169 2.138919 0.111282 -10.148819 1.696521 1.118851 16.760192 -14.239974 0.166401 0.000000 0.000000 0.000000 0.000000 0.000000 0.000000 0.157801 0.039106 -8.637650 0.299195 2.179789 -0.033386 9.532118 -39.356251 5.119465 0.000000 0.000000 0.000000 0.157801 0.039106 -8.637650 -0.000000 0.000000 0.000000 0.730197 -0.813521 0.232617 0.000000 0.000000 0.000000
83.348798 72.432062 234.200746 -0.205569 -0.088974 8.620945 0.216583 0.057154 -8.621213 -0.000000 0.000000 0.000000 -0.000000 0.000000 0.000000 0.000000 0.000000 0.000000 -0.000000 0.000000 0.000000 1.087111 -0.151636 0.383630 -7.197545 -1.836140 -2.601111 4.924327 -0.392705 1.225670 0.000000 0.000000 0.000000 0.000000 0.000000 0.000000 -0.000000 0.000000 0.000000 0.170454 2.854878 0.136056 -12.335341 2.043113 1.254360 20.822694 -17.948360 0.789974 0.000000 0.000000 0.000000 0.000000 0.000000 0.000000 0.216583 0.057154 -8.621213 0.448526 3.120485 -0.051061 19.110210 -57.003602 13.256218 0.000000 0.000000 0.000000 0.216583 0.057154 -8.621213 -0.000000 0.000000 0.000000 0.814179 -1.159494 0.255245 0.000000 0.000000 0.000000
83.314360 72.424070 234.162916 -0.247902 -0.112539 8.607260 0.261953 0.074169 -8.607673 -0.000000 0.000000 0.000000 -0.000000 0.000000 0.000000 0.000000 0.000000 0.000000 -0.000000 0.000000 0.000000 1.332086 -0.198659 0.470043 -8.946738 -2.278573 -3.268294 5.271532 0.034520 1.916815 0.000000 0.000000 0.000000 0.000000 0.000000 0.000000 -0.000000 0.000000 0.000000 0.129038 3.335706 0.141764 -13.404214 2.347818 1.258831 23.148555 -20.244624 1.358024 0.000000 0.000000 0.000000 0.000000 0.000000 0.000000 0.261953 0.074169 -8.607673 0.594108 3.924756 -0.068017 34.158972 -68.462534 27.452739 0.000000 0.000000 0.000000 0.261953 0.074169 -8.607673 -0.000000 0.000000 0.000000 0.705002 -1.464530 0.211197 0.000000 0.000000 0.000000
